<?xml version="1.0" encoding="utf-8"?>
<svg version="1.0" id="katman_1" xmlns="http://www.w3.org/2000/svg" xmlns:xlink="http://www.w3.org/1999/xlink" x="0px" y="0px"
	 viewBox="0 0 600 450" style="enable-background:new 0 0 600 450;" xml:space="preserve">
<style type="text/css">
	.st0{fill:#ffffff;}
</style>
<g>
	<g>
		<path class="st0" d="M492.9,211L492.9,211c-3.3-43-21.3-82.5-49.8-112.7c-2.1-2.2-5.5-2.3-7.7-0.2c-2.2,2.1-2.3,5.5-0.2,7.7
			c2.4,2.6,4.8,5.2,6.9,7.8c0.1,0.1,0.1,0.2,0.2,0.2c16.5,19.8,28.5,43.2,35,68.9c-9.3-11.7-22.6-22.3-39.4-31.5
			c-11.9-6.5-25.2-12-39.4-16.4c-8.9-28.6-24.4-60-47.9-78.8c6.1,1.5,12.4,3.5,18.3,5.7v0c15.9,5.8,32.7,15,47.9,27.2
			c2.3,1.9,5.8,1.5,7.6-0.9c1.9-2.3,1.5-5.8-0.9-7.6c-1.3-1-2.8-2.2-3.4-2.6c-2.8-2.1-6.2-4.5-6.7-4.9l0,0
			c-19.1-13.2-40.6-22.8-63.2-28.1c0,0-0.1,0-0.1,0c-0.1,0-0.1,0-0.2,0c-1.6-0.4-3.3-0.7-5.3-1.1c-0.1,0-0.1,0-0.2,0l-0.3-0.1
			c-1.6-0.3-3.2-0.6-4.9-0.9c0,0-0.1,0-0.1,0l-0.6-0.1c-1.7-0.3-3.4-0.5-5.1-0.8l-0.1,0c-0.1,0-0.2,0-0.3,0c-0.2,0-0.4-0.1-0.6-0.1
			l-0.5-0.1c-0.1,0-0.1,0-0.2,0c-1.7-0.2-3.5-0.4-5.2-0.6c0,0,0,0-0.1,0c0,0,0,0,0,0c-0.2,0-0.4,0-0.5,0c-0.1,0-0.3,0-0.4,0
			c0,0-0.1,0-0.1,0l-0.2,0c-1.4-0.1-2.8-0.2-4.2-0.4c-0.1,0-0.1,0-0.2,0c-38-2.7-77.2,6.3-111.8,28.1
			c-105.9,67.3-116.1,216-22.5,297c69.7,60.4,173.1,60.2,242.6,0C474.5,326.3,497.4,268.8,492.9,211z M386,131.2
			c-24.1-6.2-50.5-9.4-77.9-9.4c-27.3,0-53.8,3.3-77.9,9.4C266.9,24.6,348.9,23.3,386,131.2z M222.2,73.2L222.2,73.2
			c12.5-7.1,27.3-13.3,43.3-17.3c-23.5,18.8-39,50.2-47.9,78.8c-28.6,8.9-60,24.4-78.8,47.9C150.7,135.5,181.4,96.4,222.2,73.2z
			 M214.1,147.3c-6.2,24.1-9.4,50.5-9.4,77.9c0,27.3,3.2,53.7,9.4,77.8C107.8,266.4,105.7,184.6,214.1,147.3z M138.8,267.6
			c8.3,10.4,19.8,20.1,34.1,28.5c13.2,7.8,28.3,14.3,44.8,19.4c8.9,28.7,24.4,59.9,47.7,78.7C204.1,378.5,154.5,329.9,138.8,267.6z
			 M230.2,319.1c19.2,4.9,40,8,61.5,9.1c3,0.1,5.5-2.2,5.7-5.2s-2.2-5.5-5.2-5.7c-23.6-1.1-45.9-4.8-65.9-10.5
			c-7.1-24.9-10.8-52.7-10.8-81.6c0-29,3.8-56.8,10.8-81.7c24.9-7.1,52.7-10.8,81.7-10.8c29,0,56.8,3.8,81.7,10.8
			c14.5,50.8,14.5,112.6,0,163.4c-22.2,6.3-46.9,10-72.6,10.7c-3,0.1-5.4,2.6-5.3,5.6c0.1,2.9,2.5,5.3,5.4,5.3c0.1,0,0.1,0,0.2,0
			c24-0.7,47.2-3.9,68.5-9.3C349.4,425.5,267.4,427.4,230.2,319.1z M350.9,394.3c23.3-18.8,38.8-50.1,47.7-78.7
			c15.5-4.8,29.8-10.9,42.5-18.1c15.4-8.8,27.6-18.9,36.3-29.8C461.7,330,412.1,378.5,350.9,394.3z M435.7,288.1
			c-10.1,5.8-21.4,10.8-33.6,15c12.6-49,12.6-106.6,0-155.7C492.1,178.2,511.4,244.8,435.7,288.1z"/>
	</g>
</g>
<g>
	<g>
		<path class="st0" d="M269.1,225.1c2.9-2.3,4.5-6.5,4.5-11.7c0-9-5.3-13.7-15.3-13.7c-12.6,0-16,8.2-16,13.1c0,3.5,1.2,4.6,5,4.6
			c3.8,0,4.6-2.2,4.6-4.1c0-3.1,2.1-4.7,6.3-4.7c4.2,0,6,1.9,6,6.2c0,5.6-2.3,6.7-6.3,6.7c-4.7,0-4.7,8.2,0,8.2
			c5.2,0,7.6,2.1,7.6,6.6c0,5.2-0.5,9-7.5,9c-5.4,0-7.3-2.7-7.3-5.1c0-3.5-2.5-3.9-5-3.9c-3.2,0-4.6,1.2-4.6,4.3
			c0,6.7,5.8,13.6,16.7,13.6c11,0,17.2-6,17.2-16.5v-1.3C275.2,231.2,273.1,227.3,269.1,225.1z"/>
	</g>
</g>
<g>
	<g>
		<path class="st0" d="M297.5,220.4c-3.6,0-6.6,0.9-8.8,2.6c0-7.4-1.1-14.4,7.6-14.4c3.5,0,7.2,1.6,7.2,5.2c0,1.5,0.6,3.9,5,3.9
			c1.1,0,4.6,0,4.6-4.3c0-6.8-5.7-13.7-16.7-13.7c-11.2,0-17.3,6-17.3,16.9v20.6c0,10.9,6,16.9,17,16.9c10.9,0,17-6,17-16.9V236
			C313.1,225.8,307.7,220.4,297.5,220.4z M296.1,245.7c-5,0-7.4-2.6-7.4-8.1v-1.8c0-4.9,2.3-7.2,7.3-7.2c5.1,0,7.3,2.4,7.3,7.8
			C303.4,241.9,302.2,245.7,296.1,245.7z"/>
	</g>
</g>
<g>
	<g>
		<path class="st0" d="M334.2,199.7c-10.9,0-17,6-17,16.9v20.6c0,10.9,6,16.9,17,16.9c10.8,0,17-6.2,17-16.9v-20.6
			C351.2,205.9,345,199.7,334.2,199.7z M341.5,237.2c0,5.3-2.5,8.1-7.3,8.1c-4.9,0-7.3-2.6-7.3-8.1v-20.6c0-5.4,2.4-8.1,7.3-8.1
			c4.9,0,7.3,2.7,7.3,8.1V237.2z"/>
	</g>
</g>
<g>
	<g>
		<path class="st0" d="M365.2,192.5c-5.3,0-9.7,4.2-9.7,9.1v2.7c0,4.9,4.6,9.2,9.7,9.2c5.2,0,9.8-4.3,9.8-9.2v-2.7
			C375,196.7,370.6,192.5,365.2,192.5z M366.9,204.3c0,1-0.8,1.9-1.7,1.9c-0.9,0-1.7-0.9-1.7-1.9v-2.7c0-0.8,0.7-1.8,1.7-1.8
			c1,0,1.7,1,1.7,1.8V204.3z"/>
	</g>
</g>
</svg>
