<svg width="20" height="21" viewBox="0 0 20 21" fill="none" xmlns="http://www.w3.org/2000/svg">
<g id="Filter center focus" clip-path="url(#clip0_848_50)">
<path id="Vector" d="M4.16667 13H2.5V16.3333C2.5 17.25 3.25 18 4.16667 18H7.5V16.3333H4.16667V13ZM4.16667 4.66667H7.5V3H4.16667C3.25 3 2.5 3.75 2.5 4.66667V8H4.16667V4.66667ZM15.8333 3H12.5V4.66667H15.8333V8H17.5V4.66667C17.5 3.75 16.75 3 15.8333 3ZM15.8333 16.3333H12.5V18H15.8333C16.75 18 17.5 17.25 17.5 16.3333V13H15.8333V16.3333ZM10 8C8.61667 8 7.5 9.11667 7.5 10.5C7.5 11.8833 8.61667 13 10 13C11.3833 13 12.5 11.8833 12.5 10.5C12.5 9.11667 11.3833 8 10 8Z" fill="white"/>
</g>
<defs>
<clipPath id="clip0_848_50">
<rect width="20" height="20" fill="white" transform="translate(0 0.5)"/>
</clipPath>
</defs>
</svg>
