<svg width="205" height="46" viewBox="0 0 205 46" fill="none" xmlns="http://www.w3.org/2000/svg">
<g clip-path="url(#clip0_242_1650)">
<path d="M99.9781 0C100.552 0.438828 101.077 0.929623 101.568 1.45699C101.972 1.89004 102.382 2.31925 102.736 2.79849C102.821 2.91397 102.904 3.03331 102.979 3.15649C103.339 3.74736 103.35 4.33632 102.961 4.9195C102.569 5.50845 102.139 6.06661 101.639 6.56703C97.8975 10.3086 94.1559 14.0502 90.4143 17.7918C89.1786 19.0274 87.9411 20.2612 86.7054 21.4987C86.5245 21.6797 86.3416 21.8625 86.1877 22.0665C85.8239 22.5477 85.8258 23.0885 86.178 23.5813C86.6303 24.2126 87.2039 24.7284 87.7813 25.2365C88.7456 26.0872 89.6425 27.0014 90.5086 27.9484C91.1149 28.6105 91.7327 29.2629 92.3832 29.8808C92.9934 30.4601 93.4514 30.4678 94.1347 29.9577C94.3541 29.7941 94.5562 29.6151 94.7506 29.4208C95.9612 28.2044 97.1969 27.013 98.3786 25.7696C99.9934 24.074 101.67 22.4399 103.29 20.752C103.768 20.2535 104.284 19.7954 104.774 19.3142C105.394 18.706 105.85 18.6695 106.497 19.2276C107.357 19.9705 108.204 20.7327 108.928 21.6181C109.018 21.7297 109.097 21.8529 109.172 21.9741C109.463 22.4515 109.498 22.9365 109.213 23.4311C108.891 23.9893 108.514 24.5128 108.062 24.967C105.246 27.7982 102.42 30.6179 99.597 33.4414C98.0206 35.0177 96.5252 36.671 94.9277 38.2243C94.6524 38.4918 94.383 38.767 94.0693 38.9941C93.5323 39.381 93.0569 39.3906 92.5237 38.998C91.9521 38.5765 91.4786 38.0491 91.0032 37.5295C90.1795 36.6306 89.3153 35.7722 88.453 34.91C86.357 32.8101 84.2457 30.7257 82.1632 28.6143C81.478 27.9195 80.7985 27.2131 80.3135 26.347C78.7718 23.5947 79.0702 20.394 81.3028 18.0343C83.6721 15.5303 86.128 13.111 88.557 10.6647C91.6403 7.56017 94.7198 4.44987 97.8012 1.34151C98.2747 0.864184 98.7424 0.377238 99.3044 0L99.9781 0Z" fill="#395289"/>
<path d="M119.825 23.3599C119.925 25.0363 119.07 26.6319 117.75 27.9734C114.263 31.5187 110.713 35.0004 107.224 38.5418C105.074 40.7225 102.932 42.9128 100.769 45.08C100.599 45.2494 100.43 45.4226 100.247 45.5785C99.864 45.8999 99.4464 45.9538 98.9979 45.7151C98.8112 45.6151 98.6476 45.4919 98.4975 45.3456C97.8104 44.672 97.1117 44.0079 96.5074 43.2573C95.7144 42.2738 95.6278 41.6983 96.4727 40.6012C96.8461 40.1182 97.2753 39.6851 97.7065 39.254C100.44 36.5209 103.176 33.7898 105.904 31.0529C107.624 29.3264 109.328 27.5846 111.046 25.8543C111.601 25.2981 112.174 24.7611 112.74 24.2145C112.96 24.0028 113.158 23.7699 113.325 23.5158C113.618 23.0751 113.599 22.7806 113.258 22.3841C113.123 22.2263 112.971 22.0819 112.825 21.9337C111.316 20.4248 109.805 18.9197 108.3 17.4088C107.903 17.0104 107.528 16.5946 107.141 16.1885C106.93 15.9672 106.691 15.7766 106.437 15.6092C106.067 15.3686 105.688 15.3532 105.303 15.5823C105.053 15.7305 104.828 15.9075 104.622 16.1115C102.401 18.3365 100.157 20.5383 97.9682 22.7941C96.9635 23.8295 95.9454 24.8515 94.9426 25.8889C94.6963 26.143 94.4249 26.3663 94.14 26.578C93.6685 26.9264 93.1892 26.9244 92.7042 26.6242C92.1268 26.2662 91.6399 25.7985 91.1837 25.3019C90.793 24.8785 90.4081 24.4454 90.0886 23.9623C89.644 23.2887 89.6363 22.769 90.102 22.0915C90.4735 21.5488 90.9143 21.0561 91.3781 20.5903C95.1024 16.8525 98.8305 13.1167 102.559 9.38284C103.294 8.64568 104.029 7.9066 104.774 7.17715C105.615 6.35531 106.102 6.34953 106.935 7.181C110.59 10.8283 114.253 14.4679 117.883 18.1402C119.217 19.4894 119.838 21.1619 119.829 23.3618L119.825 23.3599Z" fill="#3076BE"/>
<path d="M21.1414 20.3478C21.0894 15.971 23.9726 11.8272 28.5341 10.5685C31.8811 9.6446 34.9414 10.3028 37.6359 12.547C39.4009 14.0175 40.5499 15.8633 41.0291 18.1017C41.6335 20.9213 41.2351 23.5851 39.6472 26.0295C38.7965 27.3382 37.7476 28.4507 36.3772 29.2244C32.1467 31.611 27.079 30.8739 23.8763 27.3844C22.1287 25.4809 21.1067 23.2194 21.1394 20.3459L21.1414 20.3478ZM24.9253 20.5383C24.9619 21.7432 25.1774 22.8999 25.8588 23.9527C26.6652 25.1961 27.7411 26.0737 29.1327 26.5703C29.6812 26.7666 30.2528 26.8167 30.8302 26.8667C31.6906 26.9437 32.524 26.8763 33.3285 26.5549C34.8066 25.964 35.9595 24.9997 36.7486 23.6024C37.1682 22.8595 37.3607 22.0608 37.4454 21.2235C37.6378 19.345 37.2606 17.6474 35.9999 16.1635C34.3486 14.2196 31.8022 13.4324 29.3636 14.1599C28.3512 14.4621 27.4986 15.001 26.7634 15.7362C26.3688 16.1308 26.0012 16.5504 25.7202 17.0469C25.1062 18.1325 24.9811 19.3161 24.9234 20.5364L24.9253 20.5383Z" fill="#395289"/>
<path d="M150.417 25.9871C150.417 27.1573 150.417 28.3294 150.417 29.4997C150.417 30.0771 150.385 30.1117 149.832 30.1156C148.934 30.1194 148.037 30.1213 147.138 30.1136C146.691 30.1098 146.643 30.0578 146.639 29.6074C146.634 28.8048 146.639 28.0042 146.639 27.2016C146.639 21.9414 146.639 16.6793 146.639 11.4192C146.639 10.9136 146.898 10.6602 147.417 10.6589C148.876 10.6608 150.337 10.6589 151.796 10.6724C152.681 10.682 153.557 10.8052 154.413 11.0169C156.024 11.4134 157.152 12.4104 157.749 13.9424C158.453 15.7497 158.443 17.5358 157.439 19.2661C156.915 20.1688 156.153 20.7635 155.227 21.1869C155.183 21.2062 155.137 21.2216 155.093 21.2408C154.598 21.4525 154.586 21.4602 154.838 21.9356C156.034 24.1875 157.235 26.4356 158.432 28.6874C158.62 29.0416 158.813 29.3938 158.984 29.7556C159.094 29.9905 159.038 30.0694 158.776 30.1059C158.697 30.1175 158.617 30.1156 158.536 30.1156C157.525 30.1156 156.515 30.1059 155.504 30.1213C155.154 30.1271 154.948 29.9962 154.794 29.6787C153.807 27.6616 152.704 25.7042 151.667 23.7141C151.401 23.2021 151.103 22.7074 150.818 22.2051C150.779 22.1358 150.739 22.0627 150.679 22.0107C150.562 21.9068 150.464 21.9453 150.439 22.0915C150.414 22.232 150.417 22.3783 150.417 22.5227C150.417 23.6775 150.417 24.8323 150.417 25.9871ZM150.417 16.2289C150.417 16.7563 150.408 17.2856 150.421 17.813C150.429 18.1171 150.491 18.1806 150.795 18.1883C151.403 18.2056 152.011 18.2114 152.615 18.1459C152.948 18.1094 153.278 18.0343 153.591 17.9034C153.878 17.7822 154.128 17.6166 154.282 17.3356C154.829 16.3329 154.561 14.7604 152.933 14.464C152.238 14.337 151.532 14.337 150.827 14.3562C150.467 14.3658 150.423 14.412 150.417 14.7874C150.408 15.2666 150.416 15.7478 150.416 16.227L150.417 16.2289Z" fill="#3076BE"/>
<path d="M134.773 30.6102C132.663 30.5486 130.781 30.1656 129.087 29.1013C127.703 28.2313 126.645 27.0495 125.794 25.6619C124.957 24.2972 124.629 22.7941 124.497 21.2293C124.347 19.4547 124.622 17.7514 125.338 16.1173C126.192 14.1657 127.59 12.7106 129.412 11.6463C130.615 10.9438 131.916 10.4992 133.292 10.2894C135.158 10.0045 136.967 10.2528 138.724 10.9149C140.169 11.4577 141.428 12.3045 142.579 13.3169C142.77 13.4844 142.922 13.698 143.097 13.8847C143.247 14.0444 143.249 14.1888 143.087 14.3389C142.35 15.028 141.611 15.7151 140.878 16.4099C140.695 16.5831 140.543 16.5504 140.383 16.3887C140.056 16.0596 139.711 15.7478 139.34 15.4668C138.256 14.6507 137.063 14.0829 135.71 13.9213C133.814 13.6961 132.091 14.1099 130.579 15.3359C129.378 16.3098 128.623 17.5435 128.361 19.0467C127.936 21.4988 128.488 23.6698 130.409 25.3654C131.318 26.168 132.403 26.6319 133.602 26.8301C135 27.063 136.351 26.8821 137.654 26.3509C138.603 25.964 139.394 25.3327 140.135 24.6418C140.662 24.1529 140.656 24.1413 141.151 24.6475C141.744 25.2557 142.342 25.8582 142.918 26.4837C143.245 26.8398 143.218 26.8475 142.872 27.1689C142.048 27.9349 141.201 28.6721 140.212 29.2167C138.863 29.9616 137.432 30.4524 135.877 30.5217C135.462 30.5409 135.052 30.6429 134.771 30.6064L134.773 30.6102Z" fill="#3076BE"/>
<path d="M193.785 17.1413C194.266 16.5254 194.705 15.9595 195.149 15.3936C196.291 13.9443 197.442 12.5047 198.568 11.0438C198.804 10.7378 199.064 10.6454 199.43 10.6512C200.585 10.6666 201.74 10.6551 202.894 10.6608C203.027 10.6608 203.216 10.58 203.281 10.7474C203.339 10.8918 203.189 11.0092 203.104 11.1208C202.611 11.7541 202.113 12.3815 201.616 13.0109C200.248 14.7508 198.881 16.4888 197.513 18.2287C197.315 18.4808 197.111 18.7291 196.922 18.987C196.687 19.3065 196.685 19.3238 196.916 19.6645C197.632 20.7096 198.352 21.7509 199.074 22.7941C200.496 24.8515 201.92 26.909 203.345 28.9646C203.545 29.2552 203.751 29.542 203.951 29.8307C204.057 29.9847 203.991 30.0713 203.826 30.0963C203.716 30.1136 203.603 30.1136 203.491 30.1136C202.4 30.1136 201.31 30.0982 200.219 30.1213C199.78 30.131 199.518 29.9597 199.278 29.6017C197.532 27.0072 195.733 24.4493 193.925 21.8991C193.898 21.8606 193.87 21.8221 193.819 21.7566C193.681 21.9395 193.729 22.1166 193.729 22.2763C193.725 24.6495 193.727 27.0245 193.725 29.3977C193.725 29.8737 193.483 30.1124 192.998 30.1136C192.164 30.1136 191.329 30.1175 190.496 30.1136C189.92 30.1098 189.872 30.0636 189.872 29.4727C189.87 26.297 189.872 23.1213 189.872 19.9455C189.872 17.1066 189.872 14.2677 189.872 11.4288C189.872 10.6647 189.883 10.6551 190.655 10.6551C191.506 10.6551 192.355 10.6512 193.206 10.6589C193.681 10.6628 193.723 10.707 193.725 11.192C193.729 12.9724 193.725 14.7527 193.729 16.5331C193.729 16.7082 193.702 16.8853 193.787 17.1393L193.785 17.1413Z" fill="#3076BE"/>
<path d="M11.0381 10.1835C13.4132 10.2393 15.9595 11.2536 18.1094 13.2476C18.3327 13.4555 18.5444 13.6749 18.7619 13.8866C18.9139 14.0329 18.9447 14.1734 18.7715 14.3351C18.0228 15.0356 17.2741 15.7401 16.535 16.4484C16.3387 16.637 16.2021 16.5581 16.05 16.4002C15.513 15.8421 14.9144 15.3628 14.2524 14.9625C12.3604 13.8173 10.351 13.5671 8.24156 14.2215C7.20993 14.541 6.34189 15.1473 5.61051 15.9345C5.28524 16.2848 4.94457 16.6235 4.72131 17.0643C3.71277 19.0486 3.51453 21.1061 4.42875 23.1405C5.36993 25.2365 7.00976 26.5183 9.34825 26.8417C10.2028 26.961 11.0458 26.9398 11.885 26.8109C12.5375 26.7108 13.1457 26.4433 13.7346 26.1469C14.5141 25.7542 15.2089 25.2423 15.8248 24.6225C15.8806 24.5648 15.9403 24.5109 15.998 24.4551C16.3175 24.1548 16.3233 24.1548 16.6505 24.4743C16.7544 24.5763 16.8545 24.6783 16.9546 24.7823C17.5166 25.3751 18.0825 25.964 18.6387 26.5626C18.8754 26.8186 18.8697 26.8821 18.6195 27.115C17.3434 28.3006 15.9903 29.3649 14.3139 29.952C13.4151 30.2657 12.499 30.4562 11.5501 30.5409C10.4877 30.6352 9.43486 30.6179 8.38783 30.4351C6.56323 30.1136 4.9388 29.3688 3.53185 28.1505C1.79001 26.6434 0.712185 24.7515 0.329173 22.49C-0.0557645 20.213 0.0943611 17.9804 1.1106 15.8613C1.9921 14.0233 3.35285 12.6356 5.11202 11.6289C6.77495 10.6782 8.56298 10.1797 11.0401 10.1816L11.0381 10.1835Z" fill="#395289"/>
<path d="M63.4102 20.3651C63.4102 17.3664 63.4102 14.3697 63.4102 11.371C63.4102 10.6589 63.4179 10.6531 64.1377 10.6531C67.2153 10.6531 70.2928 10.6531 73.3723 10.6531C73.8625 10.6531 74.1076 10.9046 74.1076 11.4076C74.1076 12.1775 74.1076 12.9474 74.1076 13.7153C74.1076 14.3274 74.0883 14.3466 73.4974 14.3466C71.5901 14.3466 69.6827 14.3466 67.7734 14.3466C67.6772 14.3466 67.581 14.3466 67.4847 14.3505C67.2923 14.3562 67.1864 14.4544 67.1864 14.6507C67.1864 15.5649 67.1883 16.4772 67.1922 17.3915C67.1922 17.6147 67.3269 17.7013 67.5328 17.7071C67.6618 17.709 67.7888 17.711 67.9178 17.711C69.7289 17.711 71.54 17.711 73.3531 17.711C74.0941 17.711 74.1076 17.7264 74.1076 18.4616C74.1076 19.2315 74.1076 20.0013 74.1076 20.7693C74.1076 21.3582 74.0806 21.3833 73.4763 21.3833C71.6478 21.3833 69.8213 21.3833 67.9928 21.3833C67.8812 21.3833 67.7676 21.3794 67.656 21.3833C67.248 21.3987 67.1922 21.4468 67.1883 21.8702C67.1806 22.8961 67.1845 23.9219 67.1864 24.9478C67.1864 25.2692 67.1806 25.5887 67.1902 25.9101C67.2018 26.3028 67.2441 26.349 67.6445 26.3509C68.7338 26.3567 69.8251 26.3509 70.9145 26.3509C71.796 26.3509 72.6775 26.349 73.559 26.3567C74.0633 26.3605 74.1037 26.4048 74.1056 26.9129C74.1095 27.779 74.1095 28.6451 74.1056 29.5093C74.1037 30.0443 74.0537 30.1059 73.5379 30.1059C70.3467 30.1098 67.1575 30.1098 63.9664 30.1059C63.4679 30.1059 63.414 30.0405 63.4121 29.4939C63.4102 26.4471 63.4121 23.4023 63.4121 20.3555H63.4102V20.3651Z" fill="#395289"/>
<path d="M161.957 20.392C161.957 17.4242 161.957 14.4582 161.957 11.4904C161.957 11.3941 161.957 11.2979 161.957 11.2017C161.971 10.707 162.015 10.6589 162.521 10.6589C165.697 10.6589 168.872 10.6589 172.046 10.6589C172.127 10.6589 172.206 10.6628 172.287 10.6647C172.52 10.6666 172.643 10.7802 172.645 11.0188C172.645 11.3075 172.649 11.5962 172.649 11.8849C172.649 12.5259 172.653 13.1687 172.647 13.8096C172.641 14.3081 172.601 14.3505 172.087 14.3524C170.243 14.3562 168.399 14.3543 166.553 14.3543C166.457 14.3543 166.361 14.3543 166.264 14.3543C165.749 14.3601 165.727 14.3812 165.726 14.9009C165.726 15.6708 165.722 16.4407 165.729 17.2105C165.733 17.6609 165.77 17.6879 166.226 17.7167C168.197 17.8457 170.17 17.7591 172.141 17.7706C172.612 17.7725 172.643 17.7841 172.647 18.2402C172.653 19.1064 172.653 19.9725 172.647 20.8386C172.643 21.3409 172.601 21.3852 172.092 21.3852C170.249 21.389 168.405 21.3852 166.559 21.3852C166.447 21.3852 166.334 21.3813 166.222 21.3852C165.785 21.3987 165.731 21.4448 165.729 21.8971C165.724 23.2117 165.726 24.5282 165.729 25.8428C165.729 26.3259 165.768 26.3624 166.253 26.3624C168.13 26.3663 170.006 26.3624 171.883 26.3643C172.392 26.3643 172.647 26.6216 172.649 27.1361C172.649 27.9541 172.653 28.7721 172.647 29.5901C172.643 30.0636 172.601 30.1117 172.117 30.1117C168.926 30.1156 165.735 30.1156 162.544 30.1117C162.009 30.1117 161.959 30.054 161.959 29.4823C161.957 26.451 161.959 23.4196 161.959 20.3901L161.957 20.392Z" fill="#3076BE"/>
<path d="M176.006 20.3535V11.5019C176.006 11.4384 176.006 11.373 176.006 11.3094C176.012 10.6839 176.035 10.6589 176.658 10.6589C179.769 10.6589 182.881 10.6589 185.991 10.6589C186.696 10.6589 186.698 10.6628 186.698 11.3441C186.698 12.1621 186.701 12.9801 186.698 13.7981C186.694 14.3043 186.651 14.3485 186.147 14.3505C184.255 14.3543 182.363 14.3524 180.469 14.3524C180.006 14.3524 179.775 14.5795 179.776 15.0337C179.776 15.7555 179.774 16.4772 179.78 17.199C179.784 17.659 179.819 17.6859 180.267 17.7148C182.238 17.8438 184.211 17.7571 186.182 17.7687C186.672 17.7725 186.696 17.7764 186.698 18.2768C186.701 19.1102 186.701 19.9455 186.698 20.7789C186.696 21.3505 186.665 21.3833 186.103 21.3833C184.242 21.3852 182.382 21.3833 180.521 21.3833C180.025 21.3833 179.776 21.6309 179.776 22.1262C179.776 23.3291 179.776 24.532 179.776 25.735C179.776 26.3547 179.784 26.3605 180.388 26.3624C182.201 26.3624 184.013 26.3624 185.826 26.3624C185.955 26.3624 186.082 26.3605 186.211 26.3643C186.634 26.3817 186.692 26.4259 186.694 26.8359C186.701 27.7828 186.699 28.7279 186.692 29.6748C186.688 30.0405 186.632 30.0848 186.27 30.1098C186.159 30.1175 186.045 30.1136 185.933 30.1136C182.902 30.1136 179.871 30.1136 176.841 30.1136C176.284 30.1136 176.006 29.8423 176.006 29.2995C176.006 26.3162 176.006 23.333 176.006 20.3516V20.3535Z" fill="#3076BE"/>
<path d="M51.7981 24.2106C51.9425 24.0721 51.9752 23.8931 52.0329 23.7314C53.5361 19.5356 55.0354 15.3397 56.5348 11.1439C56.7003 10.6801 56.7195 10.6589 57.2257 10.657C58.14 10.6551 59.0542 10.6589 59.9665 10.6608C59.9992 10.6608 60.03 10.6608 60.0627 10.6608C60.5112 10.6782 60.5631 10.7532 60.4015 11.1901C60.2071 11.7156 59.9992 12.2372 59.8067 12.7645C58.8636 15.3725 57.9205 17.9804 56.9832 20.5903C55.8881 23.6371 54.7949 26.6858 53.7093 29.7364C53.6131 30.0059 53.4591 30.1194 53.18 30.1175C52.2504 30.1117 51.3208 30.1079 50.3912 30.1175C50.0409 30.1213 49.8831 29.9423 49.7772 29.6325C49.296 28.2217 48.8052 26.8147 48.3067 25.4097C47.3964 22.8422 46.4744 20.2785 45.5621 17.711C45.0579 16.2905 44.5575 14.8701 44.0686 13.4459C43.8357 12.7626 43.6009 12.0813 43.3276 11.4134C43.2852 11.3095 43.2448 11.2036 43.214 11.0958C43.1062 10.7301 43.1467 10.6589 43.5239 10.6551C44.3246 10.6474 45.1272 10.6551 45.9298 10.6551C46.1376 10.6551 46.3474 10.6685 46.5553 10.6589C46.8613 10.6435 47.0114 10.7917 47.1096 11.0766C47.4926 12.1987 47.8929 13.315 48.2894 14.4332C49.4077 17.5916 50.524 20.75 51.6441 23.9085C51.6807 24.0105 51.6923 24.1279 51.8 24.2068L51.7981 24.2106Z" fill="#395289"/>
</g>
<defs>
<clipPath id="clip0_242_1650">
<rect width="204.017" height="46" fill="white"/>
</clipPath>
</defs>
</svg>
