<svg width="1536" height="363" viewBox="0 0 1536 363" fill="none" xmlns="http://www.w3.org/2000/svg">
<g opacity="0.5" clip-path="url(#clip0_262_6859)">
<path d="M0.101562 354.668C0.101562 354.668 340.738 407.929 484.308 232.059C616.644 69.9564 762.251 -104.645 944.982 79.9673C1171.15 308.46 1510.39 317.651 1510.39 317.651" stroke="url(#paint0_linear_262_6859)" stroke-width="1.5" stroke-miterlimit="10"/>
<path d="M3.29492 339.471C3.29492 339.471 335.506 399.427 486.271 238.373C576.288 142.211 670.297 37.3061 773.273 18.1735C827.514 7.89282 885.601 24.0282 948.02 79.9673C1172.84 281.134 1504.84 298.409 1512.7 305.272" stroke="url(#paint1_linear_262_6859)" stroke-width="1.5" stroke-miterlimit="10"/>
<path d="M6.49805 324.275C6.49805 324.275 330.018 390.915 488.236 244.688C581.299 158.676 677.024 60.9346 777.944 34.5086C831.405 20.5114 889.079 31.6013 951.039 79.9773C1174.52 253.809 1499.27 279.166 1514.97 292.904" stroke="url(#paint2_linear_262_6859)" stroke-width="1.5" stroke-miterlimit="10"/>
<path d="M9.69141 309.069C9.69141 309.069 324.263 382.312 490.199 250.992C586.145 175.061 683.733 84.3333 782.615 50.8338C835.296 32.99 892.557 39.1644 954.067 79.9673C1176.2 226.474 1493.71 259.904 1517.26 280.515" stroke="url(#paint3_linear_262_6859)" stroke-width="1.5" stroke-miterlimit="10"/>
<path d="M12.8945 293.873C12.8945 293.873 318.242 373.56 492.172 257.306C590.844 191.356 690.451 107.682 787.305 67.1789C839.197 45.4687 896.054 46.7475 957.105 79.9873C1177.9 199.169 1488.16 240.681 1519.56 268.156" stroke="url(#paint4_linear_262_6859)" stroke-width="1.5" stroke-miterlimit="10"/>
<path d="M16.0879 278.677C16.0879 278.677 311.992 364.569 494.127 263.62C595.386 207.491 697.141 131.001 791.967 83.5141C843.069 57.9174 899.523 54.3206 960.124 79.9873C1179.57 171.834 1482.58 221.429 1521.84 255.777" stroke="url(#paint5_linear_262_6859)" stroke-width="1.5" stroke-miterlimit="10"/>
<path d="M19.291 263.48C19.291 263.48 305.576 355.267 496.1 269.925C599.847 223.457 703.841 154.26 796.648 99.8392C846.952 70.3361 902.974 62.0236 963.162 79.9773C1181.14 145.008 1477.03 202.176 1524.13 243.389" stroke="url(#paint6_linear_262_6859)" stroke-width="1.5" stroke-miterlimit="10"/>
<path d="M22.4863 248.274C22.4863 248.274 299.043 345.606 498.065 276.229C604.244 239.223 710.506 177.499 801.321 116.164C850.817 82.7348 906.463 69.5868 966.183 79.9773C1182.86 117.673 1471.46 182.924 1526.41 231.01" stroke="url(#paint7_linear_262_6859)" stroke-width="1.5" stroke-miterlimit="10"/>
<path d="M25.6895 233.078C25.6895 233.078 292.481 335.575 500.03 282.543C608.622 254.798 717.141 200.708 806.002 132.5C854.672 95.1335 909.978 77.02 969.221 79.9773C1184.63 89.8383 1465.91 163.671 1528.71 218.631" stroke="url(#paint8_linear_262_6859)" stroke-width="1.5" stroke-miterlimit="10"/>
<path d="M28.8828 217.882C28.8828 217.882 285.955 325.154 501.993 288.857C613.036 270.204 723.758 223.906 810.673 148.835C858.508 107.522 913.446 84.5931 972.24 79.9873C1186.3 62.5232 1460.34 144.439 1530.99 206.262" stroke="url(#paint9_linear_262_6859)" stroke-width="1.5" stroke-miterlimit="10"/>
<path d="M32.0859 202.676C32.0859 202.676 279.558 314.384 503.957 295.162C617.515 285.431 730.238 246.956 815.344 165.16C862.271 119.811 916.925 92.1662 975.269 79.9773C1187.99 35.178 1454.78 125.176 1533.27 193.864" stroke="url(#paint10_linear_262_6859)" stroke-width="1.5" stroke-miterlimit="10"/>
<path d="M35.2793 187.48C35.2793 187.48 570.469 447.963 820.024 181.495C1034.54 -47.5568 1425.58 85.2425 1535.57 181.495" stroke="url(#paint11_linear_262_6859)" stroke-width="1.5" stroke-miterlimit="10"/>
</g>
<defs>
<linearGradient id="paint0_linear_262_6859" x1="-73.307" y1="171.686" x2="1447.85" y2="195.102" gradientUnits="userSpaceOnUse">
<stop stop-color="#3276BC" stop-opacity="0"/>
<stop offset="0.2" stop-color="#3276BC"/>
<stop offset="0.35" stop-color="#3276BC"/>
<stop offset="0.5" stop-color="#3276BC" stop-opacity="0.25"/>
<stop offset="0.65" stop-color="#3276BC"/>
<stop offset="0.8" stop-color="#3276BC"/>
<stop offset="1" stop-color="#3276BC" stop-opacity="0"/>
</linearGradient>
<linearGradient id="paint1_linear_262_6859" x1="-66.5151" y1="172.725" x2="1453.69" y2="196.126" gradientUnits="userSpaceOnUse">
<stop stop-color="#3276BC" stop-opacity="0"/>
<stop offset="0.2" stop-color="#3276BC"/>
<stop offset="0.35" stop-color="#3276BC"/>
<stop offset="0.5" stop-color="#3276BC" stop-opacity="0.25"/>
<stop offset="0.65" stop-color="#3276BC"/>
<stop offset="0.8" stop-color="#3276BC"/>
<stop offset="1" stop-color="#3276BC" stop-opacity="0"/>
</linearGradient>
<linearGradient id="paint2_linear_262_6859" x1="-59.7224" y1="173.753" x2="1458.93" y2="197.13" gradientUnits="userSpaceOnUse">
<stop stop-color="#3276BC" stop-opacity="0"/>
<stop offset="0.2" stop-color="#3276BC"/>
<stop offset="0.35" stop-color="#3276BC"/>
<stop offset="0.5" stop-color="#3276BC" stop-opacity="0.25"/>
<stop offset="0.65" stop-color="#3276BC"/>
<stop offset="0.8" stop-color="#3276BC"/>
<stop offset="1" stop-color="#3276BC" stop-opacity="0"/>
</linearGradient>
<linearGradient id="paint3_linear_262_6859" x1="-52.9288" y1="174.683" x2="1464.15" y2="198.035" gradientUnits="userSpaceOnUse">
<stop stop-color="#3276BC" stop-opacity="0"/>
<stop offset="0.2" stop-color="#3276BC"/>
<stop offset="0.35" stop-color="#3276BC"/>
<stop offset="0.5" stop-color="#3276BC" stop-opacity="0.25"/>
<stop offset="0.65" stop-color="#3276BC"/>
<stop offset="0.8" stop-color="#3276BC"/>
<stop offset="1" stop-color="#3276BC" stop-opacity="0"/>
</linearGradient>
<linearGradient id="paint4_linear_262_6859" x1="-46.1331" y1="175.515" x2="1469.4" y2="198.843" gradientUnits="userSpaceOnUse">
<stop stop-color="#3276BC" stop-opacity="0"/>
<stop offset="0.2" stop-color="#3276BC"/>
<stop offset="0.35" stop-color="#3276BC"/>
<stop offset="0.5" stop-color="#3276BC" stop-opacity="0.25"/>
<stop offset="0.65" stop-color="#3276BC"/>
<stop offset="0.8" stop-color="#3276BC"/>
<stop offset="1" stop-color="#3276BC" stop-opacity="0"/>
</linearGradient>
<linearGradient id="paint5_linear_262_6859" x1="-39.3355" y1="176.183" x2="1474.63" y2="199.488" gradientUnits="userSpaceOnUse">
<stop stop-color="#3276BC" stop-opacity="0"/>
<stop offset="0.2" stop-color="#3276BC"/>
<stop offset="0.35" stop-color="#3276BC"/>
<stop offset="0.5" stop-color="#3276BC" stop-opacity="0.25"/>
<stop offset="0.65" stop-color="#3276BC"/>
<stop offset="0.8" stop-color="#3276BC"/>
<stop offset="1" stop-color="#3276BC" stop-opacity="0"/>
</linearGradient>
<linearGradient id="paint6_linear_262_6859" x1="-32.5337" y1="176.623" x2="1479.86" y2="199.904" gradientUnits="userSpaceOnUse">
<stop stop-color="#3276BC" stop-opacity="0"/>
<stop offset="0.2" stop-color="#3276BC"/>
<stop offset="0.35" stop-color="#3276BC"/>
<stop offset="0.5" stop-color="#3276BC" stop-opacity="0.25"/>
<stop offset="0.65" stop-color="#3276BC"/>
<stop offset="0.8" stop-color="#3276BC"/>
<stop offset="1" stop-color="#3276BC" stop-opacity="0"/>
</linearGradient>
<linearGradient id="paint7_linear_262_6859" x1="-25.7241" y1="176.639" x2="1485.12" y2="199.895" gradientUnits="userSpaceOnUse">
<stop stop-color="#3276BC" stop-opacity="0"/>
<stop offset="0.2" stop-color="#3276BC"/>
<stop offset="0.35" stop-color="#3276BC"/>
<stop offset="0.5" stop-color="#3276BC" stop-opacity="0.25"/>
<stop offset="0.65" stop-color="#3276BC"/>
<stop offset="0.8" stop-color="#3276BC"/>
<stop offset="1" stop-color="#3276BC" stop-opacity="0"/>
</linearGradient>
<linearGradient id="paint8_linear_262_6859" x1="-18.9063" y1="176.033" x2="1490.37" y2="199.266" gradientUnits="userSpaceOnUse">
<stop stop-color="#3276BC" stop-opacity="0"/>
<stop offset="0.2" stop-color="#3276BC"/>
<stop offset="0.35" stop-color="#3276BC"/>
<stop offset="0.5" stop-color="#3276BC" stop-opacity="0.25"/>
<stop offset="0.65" stop-color="#3276BC"/>
<stop offset="0.8" stop-color="#3276BC"/>
<stop offset="1" stop-color="#3276BC" stop-opacity="0"/>
</linearGradient>
<linearGradient id="paint9_linear_262_6859" x1="-12.0565" y1="173.315" x2="1495.67" y2="196.524" gradientUnits="userSpaceOnUse">
<stop stop-color="#3276BC" stop-opacity="0"/>
<stop offset="0.2" stop-color="#3276BC"/>
<stop offset="0.35" stop-color="#3276BC"/>
<stop offset="0.5" stop-color="#3276BC" stop-opacity="0.25"/>
<stop offset="0.65" stop-color="#3276BC"/>
<stop offset="0.8" stop-color="#3276BC"/>
<stop offset="1" stop-color="#3276BC" stop-opacity="0"/>
</linearGradient>
<linearGradient id="paint10_linear_262_6859" x1="-5.18007" y1="168.18" x2="1500.99" y2="191.365" gradientUnits="userSpaceOnUse">
<stop stop-color="#3276BC" stop-opacity="0"/>
<stop offset="0.2" stop-color="#3276BC"/>
<stop offset="0.35" stop-color="#3276BC"/>
<stop offset="0.5" stop-color="#3276BC" stop-opacity="0.25"/>
<stop offset="0.65" stop-color="#3276BC"/>
<stop offset="0.8" stop-color="#3276BC"/>
<stop offset="1" stop-color="#3276BC" stop-opacity="0"/>
</linearGradient>
<linearGradient id="paint11_linear_262_6859" x1="1.70823" y1="162.958" x2="1506.32" y2="186.119" gradientUnits="userSpaceOnUse">
<stop stop-color="#3276BC" stop-opacity="0"/>
<stop offset="0.2" stop-color="#3276BC"/>
<stop offset="0.35" stop-color="#3276BC"/>
<stop offset="0.5" stop-color="#3276BC" stop-opacity="0.25"/>
<stop offset="0.65" stop-color="#3276BC"/>
<stop offset="0.8" stop-color="#3276BC"/>
<stop offset="1" stop-color="#3276BC" stop-opacity="0"/>
</linearGradient>
<clipPath id="clip0_262_6859">
<rect width="1536" height="363" fill="white"/>
</clipPath>
</defs>
</svg>
