<svg width="1536" height="396" viewBox="0 0 1536 396" fill="none" xmlns="http://www.w3.org/2000/svg">
<g opacity="0.5" clip-path="url(#clip0_266_7357)">
<path d="M1535.52 70.53C1535.52 70.53 1309.06 260.12 904.43 380.69C579.71 477.45 266.69 47.63 -0.480469 0.740005" stroke="url(#paint0_linear_266_7357)" stroke-width="1.5" stroke-miterlimit="10"/>
<path d="M1535.52 91C1535.52 91 1295.57 239.68 892.64 368.15C566.48 472.76 251.38 80.01 -0.480469 28.71" stroke="url(#paint1_linear_266_7357)" stroke-width="1.5" stroke-miterlimit="10"/>
<path d="M1535.52 111.47C1535.52 111.47 1282.07 219.24 880.849 355.61C553.24 468.07 236.08 112.39 -0.480469 56.68" stroke="url(#paint2_linear_266_7357)" stroke-width="1.5" stroke-miterlimit="10"/>
<path d="M1535.52 131.94C1535.52 131.94 1268.58 198.81 869.06 343.07C540.01 463.38 220.77 144.77 -0.480469 84.65" stroke="url(#paint3_linear_266_7357)" stroke-width="1.5" stroke-miterlimit="10"/>
<path d="M1535.52 152.41C1535.52 152.41 1254.74 177.46 857.27 330.54C526.48 457.93 205.47 177.16 -0.480469 112.62" stroke="url(#paint4_linear_266_7357)" stroke-width="1.5" stroke-miterlimit="10"/>
<path d="M1535.52 172.88C1535.52 172.88 1241.21 156.98 845.479 318C513.21 453.2 190.16 209.54 -0.480469 140.59" stroke="url(#paint5_linear_266_7357)" stroke-width="1.5" stroke-miterlimit="10"/>
<path d="M1535.52 193.35C1535.52 193.35 1227.7 136.56 833.69 305.46C499.97 448.52 174.85 241.92 -0.480469 168.56" stroke="url(#paint6_linear_266_7357)" stroke-width="1.5" stroke-miterlimit="10"/>
<path d="M1535.52 213.82C1535.52 213.82 1214.22 116.2 821.9 292.93C486.74 443.9 159.55 274.3 -0.480469 196.53" stroke="url(#paint7_linear_266_7357)" stroke-width="1.5" stroke-miterlimit="10"/>
<path d="M1535.52 234.29C1535.52 234.29 1201.12 96.63 810.109 280.39C473.84 439.94 144.24 306.68 -0.480469 224.5" stroke="url(#paint8_linear_266_7357)" stroke-width="1.5" stroke-miterlimit="10"/>
<path d="M1535.52 254.76C1535.52 254.76 1187.62 76.19 798.31 267.85C460.609 435.25 128.93 339.07 -0.480469 252.47" stroke="url(#paint9_linear_266_7357)" stroke-width="1.5" stroke-miterlimit="10"/>
<path d="M1535.52 275.23C1535.52 275.23 1174.13 55.75 786.52 255.32C447.38 430.57 113.63 371.45 -0.480469 280.44" stroke="url(#paint10_linear_266_7357)" stroke-width="1.5" stroke-miterlimit="10"/>
<path d="M1535.52 295.7C1535.52 295.7 1160.64 35.32 774.729 242.78C434.139 425.88 98.3195 403.83 -0.480469 308.41" stroke="url(#paint11_linear_266_7357)" stroke-width="1.5" stroke-miterlimit="10"/>
</g>
<defs>
<linearGradient id="paint0_linear_266_7357" x1="1536" y1="59" x2="-9.98443e-09" y2="59" gradientUnits="userSpaceOnUse">
<stop stop-color="#3276BC" stop-opacity="0"/>
<stop offset="0.2" stop-color="#3276BC"/>
<stop offset="0.35" stop-color="#3276BC"/>
<stop offset="0.5" stop-color="#3276BC"/>
<stop offset="0.65" stop-color="#3276BC"/>
<stop offset="0.8" stop-color="#3276BC"/>
<stop offset="1" stop-color="#3276BC" stop-opacity="0"/>
</linearGradient>
<linearGradient id="paint1_linear_266_7357" x1="1536" y1="81.4981" x2="-9.98443e-09" y2="81.4981" gradientUnits="userSpaceOnUse">
<stop stop-color="#3276BC" stop-opacity="0"/>
<stop offset="0.2" stop-color="#3276BC"/>
<stop offset="0.35" stop-color="#3276BC"/>
<stop offset="0.5" stop-color="#3276BC"/>
<stop offset="0.65" stop-color="#3276BC"/>
<stop offset="0.8" stop-color="#3276BC"/>
<stop offset="1" stop-color="#3276BC" stop-opacity="0"/>
</linearGradient>
<linearGradient id="paint2_linear_266_7357" x1="1536" y1="104.101" x2="-9.98443e-09" y2="104.101" gradientUnits="userSpaceOnUse">
<stop stop-color="#3276BC" stop-opacity="0"/>
<stop offset="0.2" stop-color="#3276BC"/>
<stop offset="0.35" stop-color="#3276BC"/>
<stop offset="0.5" stop-color="#3276BC"/>
<stop offset="0.65" stop-color="#3276BC"/>
<stop offset="0.8" stop-color="#3276BC"/>
<stop offset="1" stop-color="#3276BC" stop-opacity="0"/>
</linearGradient>
<linearGradient id="paint3_linear_266_7357" x1="1536" y1="126.831" x2="-9.98443e-09" y2="126.831" gradientUnits="userSpaceOnUse">
<stop stop-color="#3276BC" stop-opacity="0"/>
<stop offset="0.2" stop-color="#3276BC"/>
<stop offset="0.35" stop-color="#3276BC"/>
<stop offset="0.5" stop-color="#3276BC"/>
<stop offset="0.65" stop-color="#3276BC"/>
<stop offset="0.8" stop-color="#3276BC"/>
<stop offset="1" stop-color="#3276BC" stop-opacity="0"/>
</linearGradient>
<linearGradient id="paint4_linear_266_7357" x1="1536" y1="149.679" x2="-9.98443e-09" y2="149.679" gradientUnits="userSpaceOnUse">
<stop stop-color="#3276BC" stop-opacity="0"/>
<stop offset="0.2" stop-color="#3276BC"/>
<stop offset="0.35" stop-color="#3276BC"/>
<stop offset="0.5" stop-color="#3276BC"/>
<stop offset="0.65" stop-color="#3276BC"/>
<stop offset="0.8" stop-color="#3276BC"/>
<stop offset="1" stop-color="#3276BC" stop-opacity="0"/>
</linearGradient>
<linearGradient id="paint5_linear_266_7357" x1="1536" y1="172.757" x2="-9.98443e-09" y2="172.757" gradientUnits="userSpaceOnUse">
<stop stop-color="#3276BC" stop-opacity="0"/>
<stop offset="0.2" stop-color="#3276BC"/>
<stop offset="0.35" stop-color="#3276BC"/>
<stop offset="0.5" stop-color="#3276BC"/>
<stop offset="0.65" stop-color="#3276BC"/>
<stop offset="0.8" stop-color="#3276BC"/>
<stop offset="1" stop-color="#3276BC" stop-opacity="0"/>
</linearGradient>
<linearGradient id="paint6_linear_266_7357" x1="1536" y1="196.085" x2="-9.98443e-09" y2="196.085" gradientUnits="userSpaceOnUse">
<stop stop-color="#3276BC" stop-opacity="0"/>
<stop offset="0.2" stop-color="#3276BC"/>
<stop offset="0.35" stop-color="#3276BC"/>
<stop offset="0.5" stop-color="#3276BC"/>
<stop offset="0.65" stop-color="#3276BC"/>
<stop offset="0.8" stop-color="#3276BC"/>
<stop offset="1" stop-color="#3276BC" stop-opacity="0"/>
</linearGradient>
<linearGradient id="paint7_linear_266_7357" x1="1536" y1="211.544" x2="-9.98443e-09" y2="211.544" gradientUnits="userSpaceOnUse">
<stop stop-color="#3276BC" stop-opacity="0"/>
<stop offset="0.2" stop-color="#3276BC"/>
<stop offset="0.35" stop-color="#3276BC"/>
<stop offset="0.5" stop-color="#3276BC"/>
<stop offset="0.65" stop-color="#3276BC"/>
<stop offset="0.8" stop-color="#3276BC"/>
<stop offset="1" stop-color="#3276BC" stop-opacity="0"/>
</linearGradient>
<linearGradient id="paint8_linear_266_7357" x1="1536" y1="209.958" x2="-9.98443e-09" y2="209.958" gradientUnits="userSpaceOnUse">
<stop stop-color="#3276BC" stop-opacity="0"/>
<stop offset="0.2" stop-color="#3276BC"/>
<stop offset="0.35" stop-color="#3276BC"/>
<stop offset="0.5" stop-color="#3276BC"/>
<stop offset="0.65" stop-color="#3276BC"/>
<stop offset="0.8" stop-color="#3276BC"/>
<stop offset="1" stop-color="#3276BC" stop-opacity="0"/>
</linearGradient>
<linearGradient id="paint9_linear_266_7357" x1="1536" y1="205.829" x2="-9.98443e-09" y2="205.829" gradientUnits="userSpaceOnUse">
<stop stop-color="#3276BC" stop-opacity="0"/>
<stop offset="0.2" stop-color="#3276BC"/>
<stop offset="0.35" stop-color="#3276BC"/>
<stop offset="0.5" stop-color="#3276BC"/>
<stop offset="0.65" stop-color="#3276BC"/>
<stop offset="0.8" stop-color="#3276BC"/>
<stop offset="1" stop-color="#3276BC" stop-opacity="0"/>
</linearGradient>
<linearGradient id="paint10_linear_266_7357" x1="1536" y1="200.573" x2="-9.98443e-09" y2="200.573" gradientUnits="userSpaceOnUse">
<stop stop-color="#3276BC" stop-opacity="0"/>
<stop offset="0.2" stop-color="#3276BC"/>
<stop offset="0.35" stop-color="#3276BC"/>
<stop offset="0.5" stop-color="#3276BC"/>
<stop offset="0.65" stop-color="#3276BC"/>
<stop offset="0.8" stop-color="#3276BC"/>
<stop offset="1" stop-color="#3276BC" stop-opacity="0"/>
</linearGradient>
<linearGradient id="paint11_linear_266_7357" x1="1536" y1="194.794" x2="-9.98443e-09" y2="194.794" gradientUnits="userSpaceOnUse">
<stop stop-color="#3276BC" stop-opacity="0"/>
<stop offset="0.2" stop-color="#3276BC"/>
<stop offset="0.35" stop-color="#3276BC"/>
<stop offset="0.5" stop-color="#3276BC"/>
<stop offset="0.65" stop-color="#3276BC"/>
<stop offset="0.8" stop-color="#3276BC"/>
<stop offset="1" stop-color="#3276BC" stop-opacity="0"/>
</linearGradient>
<clipPath id="clip0_266_7357">
<rect width="1537" height="395.58" fill="white" transform="translate(-1)"/>
</clipPath>
</defs>
</svg>
