<svg width="1536" height="455" viewBox="0 0 1536 455" fill="none" xmlns="http://www.w3.org/2000/svg">
<g opacity="0.5" clip-path="url(#clip0_272_1359)">
<path d="M1535.63 131.41C1535.63 131.41 1359.35 130.73 1061.94 359.33C783.351 573.47 454.321 381.4 202.891 208.12C74.7709 119.83 -0.369141 0.400002 -0.369141 0.400002" stroke="url(#paint0_linear_272_1359)" stroke-width="1.5" stroke-miterlimit="10"/>
<path d="M1535.63 145.84C1535.63 145.84 1362.45 132.89 1063.97 343.59C1012.77 379.73 959.801 403.86 905.531 418.14C665.381 481.31 411.591 346.53 207.911 217.1C82.8509 137.64 7.22086 27.7 -0.369141 26.06" stroke="url(#paint1_linear_272_1359)" stroke-width="1.5" stroke-miterlimit="10"/>
<path d="M1535.63 160.26C1535.63 160.26 1365.67 135.1 1066 327.85C1015.04 360.63 962.201 383.19 907.681 397.23C666.191 459.4 415.431 343.55 212.921 226.08C91.0508 155.38 14.8009 55 -0.369141 51.73" stroke="url(#paint2_linear_272_1359)" stroke-width="1.5" stroke-miterlimit="10"/>
<path d="M1535.63 174.68C1535.63 174.68 1369.02 137.39 1068.04 312.1C1017.33 341.54 964.601 362.51 909.841 376.31C667.011 437.47 419.471 340.47 217.941 235.05C99.3609 173.02 22.3909 82.31 -0.369141 77.39" stroke="url(#paint3_linear_272_1359)" stroke-width="1.5" stroke-miterlimit="10"/>
<path d="M1535.63 189.1C1535.63 189.1 1372.5 139.78 1070.07 296.35C1019.64 322.46 966.991 341.84 912.001 355.39C667.821 415.54 423.701 337.24 222.961 244.02C107.801 190.55 29.9709 109.61 -0.369141 103.06" stroke="url(#paint4_linear_272_1359)" stroke-width="1.5" stroke-miterlimit="10"/>
<path d="M1535.63 203.53C1535.63 203.53 1376.09 142.32 1072.11 280.62C1021.97 303.43 969.391 321.18 914.161 334.49C668.641 393.64 428.121 333.81 227.981 253.01C116.361 207.94 37.5609 136.91 -0.369141 128.72" stroke="url(#paint5_linear_272_1359)" stroke-width="1.5" stroke-miterlimit="10"/>
<path d="M1535.63 217.95C1535.63 217.95 1379.78 145.02 1074.14 264.87C1024.31 284.41 971.791 300.5 916.311 313.58C669.451 371.72 432.711 330.1 232.991 261.98C125.011 225.15 45.1409 164.22 -0.369141 154.38" stroke="url(#paint6_linear_272_1359)" stroke-width="1.5" stroke-miterlimit="10"/>
<path d="M1535.63 232.37C1535.63 232.37 1383.55 147.92 1076.18 249.12C1026.68 265.42 974.191 279.82 918.481 292.66C670.281 349.8 437.461 326.03 238.021 270.95C133.751 242.16 52.7309 191.52 -0.369141 180.05" stroke="url(#paint7_linear_272_1359)" stroke-width="1.5" stroke-miterlimit="10"/>
<path d="M1535.63 246.79C1535.63 246.79 1387.38 151.04 1078.21 233.38C1029.04 246.47 976.581 259.16 920.631 271.75C671.091 327.88 442.281 321.53 243.031 279.93C142.541 258.95 60.3109 218.82 -0.369141 205.71" stroke="url(#paint8_linear_272_1359)" stroke-width="1.5" stroke-miterlimit="10"/>
<path d="M1535.63 261.22C1535.63 261.22 1391.22 154.42 1080.24 217.64C1031.41 227.57 978.979 238.49 922.779 250.84C671.889 305.96 447.129 316.5 248.039 288.91C151.319 275.51 67.8791 246.13 -0.380859 231.38" stroke="url(#paint9_linear_272_1359)" stroke-width="1.5" stroke-miterlimit="10"/>
<path d="M1535.63 275.64C1535.63 275.64 1395.02 158.05 1082.28 201.89C1033.78 208.69 981.381 217.81 924.951 229.92C672.721 284.04 451.901 310.86 253.071 297.88C160.061 291.81 75.4806 273.43 -0.359375 257.04" stroke="url(#paint10_linear_272_1359)" stroke-width="1.5" stroke-miterlimit="10"/>
<path d="M1535.63 290.06C1535.63 290.06 1353.59 119.68 927.101 209.01C559.241 286.06 268.141 340.72 -0.369141 282.71" stroke="url(#paint11_linear_272_1359)" stroke-width="1.5" stroke-miterlimit="10"/>
</g>
<defs>
<linearGradient id="paint0_linear_272_1359" x1="1536" y1="119" x2="-3.13055e-06" y2="119" gradientUnits="userSpaceOnUse">
<stop stop-color="#3276BC" stop-opacity="0"/>
<stop offset="0.2" stop-color="#3276BC"/>
<stop offset="0.35" stop-color="#3276BC"/>
<stop offset="0.5" stop-color="#3276BC"/>
<stop offset="0.65" stop-color="#3276BC"/>
<stop offset="0.8" stop-color="#3276BC"/>
<stop offset="1" stop-color="#3276BC" stop-opacity="0"/>
</linearGradient>
<linearGradient id="paint1_linear_272_1359" x1="1536" y1="132.762" x2="-3.13055e-06" y2="132.762" gradientUnits="userSpaceOnUse">
<stop stop-color="#3276BC" stop-opacity="0"/>
<stop offset="0.2" stop-color="#3276BC"/>
<stop offset="0.35" stop-color="#3276BC"/>
<stop offset="0.5" stop-color="#3276BC"/>
<stop offset="0.65" stop-color="#3276BC"/>
<stop offset="0.8" stop-color="#3276BC"/>
<stop offset="1" stop-color="#3276BC" stop-opacity="0"/>
</linearGradient>
<linearGradient id="paint2_linear_272_1359" x1="1536" y1="146.596" x2="-3.13055e-06" y2="146.596" gradientUnits="userSpaceOnUse">
<stop stop-color="#3276BC" stop-opacity="0"/>
<stop offset="0.2" stop-color="#3276BC"/>
<stop offset="0.35" stop-color="#3276BC"/>
<stop offset="0.5" stop-color="#3276BC"/>
<stop offset="0.65" stop-color="#3276BC"/>
<stop offset="0.8" stop-color="#3276BC"/>
<stop offset="1" stop-color="#3276BC" stop-opacity="0"/>
</linearGradient>
<linearGradient id="paint3_linear_272_1359" x1="1536" y1="160.505" x2="-3.13055e-06" y2="160.505" gradientUnits="userSpaceOnUse">
<stop stop-color="#3276BC" stop-opacity="0"/>
<stop offset="0.2" stop-color="#3276BC"/>
<stop offset="0.35" stop-color="#3276BC"/>
<stop offset="0.5" stop-color="#3276BC"/>
<stop offset="0.65" stop-color="#3276BC"/>
<stop offset="0.8" stop-color="#3276BC"/>
<stop offset="1" stop-color="#3276BC" stop-opacity="0"/>
</linearGradient>
<linearGradient id="paint4_linear_272_1359" x1="1536" y1="174.542" x2="-3.13055e-06" y2="174.542" gradientUnits="userSpaceOnUse">
<stop stop-color="#3276BC" stop-opacity="0"/>
<stop offset="0.2" stop-color="#3276BC"/>
<stop offset="0.35" stop-color="#3276BC"/>
<stop offset="0.5" stop-color="#3276BC"/>
<stop offset="0.65" stop-color="#3276BC"/>
<stop offset="0.8" stop-color="#3276BC"/>
<stop offset="1" stop-color="#3276BC" stop-opacity="0"/>
</linearGradient>
<linearGradient id="paint5_linear_272_1359" x1="1536" y1="188.751" x2="-3.13054e-06" y2="188.751" gradientUnits="userSpaceOnUse">
<stop stop-color="#3276BC" stop-opacity="0"/>
<stop offset="0.2" stop-color="#3276BC"/>
<stop offset="0.35" stop-color="#3276BC"/>
<stop offset="0.5" stop-color="#3276BC"/>
<stop offset="0.65" stop-color="#3276BC"/>
<stop offset="0.8" stop-color="#3276BC"/>
<stop offset="1" stop-color="#3276BC" stop-opacity="0"/>
</linearGradient>
<linearGradient id="paint6_linear_272_1359" x1="1536" y1="203.215" x2="-3.13054e-06" y2="203.215" gradientUnits="userSpaceOnUse">
<stop stop-color="#3276BC" stop-opacity="0"/>
<stop offset="0.2" stop-color="#3276BC"/>
<stop offset="0.35" stop-color="#3276BC"/>
<stop offset="0.5" stop-color="#3276BC"/>
<stop offset="0.65" stop-color="#3276BC"/>
<stop offset="0.8" stop-color="#3276BC"/>
<stop offset="1" stop-color="#3276BC" stop-opacity="0"/>
</linearGradient>
<linearGradient id="paint7_linear_272_1359" x1="1536" y1="218.093" x2="-3.13054e-06" y2="218.092" gradientUnits="userSpaceOnUse">
<stop stop-color="#3276BC" stop-opacity="0"/>
<stop offset="0.2" stop-color="#3276BC"/>
<stop offset="0.35" stop-color="#3276BC"/>
<stop offset="0.5" stop-color="#3276BC"/>
<stop offset="0.65" stop-color="#3276BC"/>
<stop offset="0.8" stop-color="#3276BC"/>
<stop offset="1" stop-color="#3276BC" stop-opacity="0"/>
</linearGradient>
<linearGradient id="paint8_linear_272_1359" x1="1536" y1="229.383" x2="-3.13053e-06" y2="229.382" gradientUnits="userSpaceOnUse">
<stop stop-color="#3276BC" stop-opacity="0"/>
<stop offset="0.2" stop-color="#3276BC"/>
<stop offset="0.35" stop-color="#3276BC"/>
<stop offset="0.5" stop-color="#3276BC"/>
<stop offset="0.65" stop-color="#3276BC"/>
<stop offset="0.8" stop-color="#3276BC"/>
<stop offset="1" stop-color="#3276BC" stop-opacity="0"/>
</linearGradient>
<linearGradient id="paint9_linear_272_1359" x1="1536" y1="225.332" x2="-0.0117195" y2="225.332" gradientUnits="userSpaceOnUse">
<stop stop-color="#3276BC" stop-opacity="0"/>
<stop offset="0.2" stop-color="#3276BC"/>
<stop offset="0.35" stop-color="#3276BC"/>
<stop offset="0.5" stop-color="#3276BC"/>
<stop offset="0.65" stop-color="#3276BC"/>
<stop offset="0.8" stop-color="#3276BC"/>
<stop offset="1" stop-color="#3276BC" stop-opacity="0"/>
</linearGradient>
<linearGradient id="paint10_linear_272_1359" x1="1536" y1="220.598" x2="0.00976009" y2="220.598" gradientUnits="userSpaceOnUse">
<stop stop-color="#3276BC" stop-opacity="0"/>
<stop offset="0.2" stop-color="#3276BC"/>
<stop offset="0.35" stop-color="#3276BC"/>
<stop offset="0.5" stop-color="#3276BC"/>
<stop offset="0.65" stop-color="#3276BC"/>
<stop offset="0.8" stop-color="#3276BC"/>
<stop offset="1" stop-color="#3276BC" stop-opacity="0"/>
</linearGradient>
<linearGradient id="paint11_linear_272_1359" x1="1536" y1="215.484" x2="-3.13053e-06" y2="215.484" gradientUnits="userSpaceOnUse">
<stop stop-color="#3276BC" stop-opacity="0"/>
<stop offset="0.2" stop-color="#3276BC"/>
<stop offset="0.35" stop-color="#3276BC"/>
<stop offset="0.5" stop-color="#3276BC"/>
<stop offset="0.65" stop-color="#3276BC"/>
<stop offset="0.8" stop-color="#3276BC"/>
<stop offset="1" stop-color="#3276BC" stop-opacity="0"/>
</linearGradient>
<clipPath id="clip0_272_1359">
<rect width="1537.15" height="454.81" fill="white" transform="translate(-1)"/>
</clipPath>
</defs>
</svg>
