<svg width="1262" height="388" viewBox="0 0 1262 388" fill="none" xmlns="http://www.w3.org/2000/svg">
<g opacity="0.5" clip-path="url(#clip0_262_6456)">
<path d="M0.529297 282.428C0.529297 282.428 348.741 506.623 468.987 299.267C589.234 91.9107 683.003 -126.199 829.915 90.3517C983.549 316.796 1216.51 311.519 1216.51 311.519" stroke="url(#paint0_linear_262_6456)" stroke-width="1.5" stroke-miterlimit="10"/>
<path d="M8.32031 265.309C8.32031 265.309 356.074 493.682 487.085 285.916C610.246 90.5817 700.948 -111.468 844.122 83.7561C994.736 289.144 1216.75 288.064 1220.61 290.033" stroke="url(#paint1_linear_262_6456)" stroke-width="1.5" stroke-miterlimit="10"/>
<path d="M16.123 248.19C16.123 248.19 362.936 480.77 505.182 272.554C630.541 89.0727 719.045 -96.6876 858.318 77.1603C1006.05 261.572 1216.99 264.6 1224.7 268.537" stroke="url(#paint2_linear_262_6456)" stroke-width="1.5" stroke-miterlimit="10"/>
<path d="M23.916 231.071C23.916 231.071 369.284 467.799 523.282 259.203C650.145 87.3637 737.333 -81.8473 872.528 70.5645C1017.58 234.099 1217.23 241.145 1228.8 247.051" stroke="url(#paint3_linear_262_6456)" stroke-width="1.5" stroke-miterlimit="10"/>
<path d="M31.707 213.952C31.707 213.952 375.089 454.687 541.368 245.841C669.1 85.4149 755.877 -66.9869 886.724 63.9687C1029.35 206.717 1217.46 217.69 1232.89 225.565" stroke="url(#paint4_linear_262_6456)" stroke-width="1.5" stroke-miterlimit="10"/>
<path d="M39.498 196.833C39.498 196.833 380.306 441.346 559.465 232.49C687.503 83.2165 774.797 -52.1263 900.931 57.3731C1041.5 179.395 1217.71 194.235 1236.99 204.069" stroke="url(#paint5_linear_262_6456)" stroke-width="1.5" stroke-miterlimit="10"/>
<path d="M47.291 179.714C47.291 179.714 384.902 427.665 577.553 219.129C705.403 80.728 794.189 -37.3559 915.117 50.7673C1054.11 152.052 1217.93 170.77 1241.07 182.572" stroke="url(#paint6_linear_262_6456)" stroke-width="1.5" stroke-miterlimit="10"/>
<path d="M55.082 162.595C55.082 162.595 388.839 413.534 595.639 205.777C722.866 77.9598 814.191 -22.8353 929.313 44.1816C1067.39 124.55 1218.17 147.315 1245.16 161.096" stroke="url(#paint7_linear_262_6456)" stroke-width="1.5" stroke-miterlimit="10"/>
<path d="M62.8848 145.476C62.8848 145.476 392.07 398.813 613.748 192.416C739.988 74.8718 834.873 -8.83424 943.532 37.5759C1081.44 96.4779 1218.42 123.85 1249.27 139.59" stroke="url(#paint8_linear_262_6456)" stroke-width="1.5" stroke-miterlimit="10"/>
<path d="M70.6758 128.357C70.6758 128.357 394.561 383.343 631.834 179.065C756.816 71.454 856.038 4.29731 957.716 30.9801C1096.08 67.2867 1218.65 100.395 1253.36 118.104" stroke="url(#paint9_linear_262_6456)" stroke-width="1.5" stroke-miterlimit="10"/>
<path d="M78.4688 111.238C78.4688 111.238 396.266 366.954 649.933 165.703C773.458 67.6965 877.088 16.2396 971.926 24.3844C1110.68 36.2867 1218.89 76.9405 1257.46 96.6178" stroke="url(#paint10_linear_262_6456)" stroke-width="1.5" stroke-miterlimit="10"/>
<path d="M86.2598 94.1193C86.2598 94.1193 397.206 349.455 668.019 152.352C978.401 -73.5527 1191.66 39.4645 1261.55 75.1216" stroke="url(#paint11_linear_262_6456)" stroke-width="1.5" stroke-miterlimit="10"/>
</g>
<defs>
<linearGradient id="paint0_linear_262_6456" x1="0.000456983" y1="194.005" x2="1216.53" y2="194.005" gradientUnits="userSpaceOnUse">
<stop stop-color="#3276BC" stop-opacity="0"/>
<stop offset="0.1" stop-color="#3276BC"/>
<stop offset="0.35" stop-color="#3276BC"/>
<stop offset="0.5" stop-color="#3276BC" stop-opacity="0.25"/>
<stop offset="0.65" stop-color="#3276BC"/>
<stop offset="0.9" stop-color="#3276BC"/>
<stop offset="1" stop-color="#3276BC" stop-opacity="0"/>
</linearGradient>
<linearGradient id="paint1_linear_262_6456" x1="7.79147" y1="188.748" x2="1221.06" y2="188.748" gradientUnits="userSpaceOnUse">
<stop stop-color="#3276BC" stop-opacity="0"/>
<stop offset="0.1" stop-color="#3276BC"/>
<stop offset="0.35" stop-color="#3276BC"/>
<stop offset="0.5" stop-color="#3276BC" stop-opacity="0.25"/>
<stop offset="0.65" stop-color="#3276BC"/>
<stop offset="0.9" stop-color="#3276BC"/>
<stop offset="1" stop-color="#3276BC" stop-opacity="0"/>
</linearGradient>
<linearGradient id="paint2_linear_262_6456" x1="15.5707" y1="183.472" x2="1225.16" y2="183.472" gradientUnits="userSpaceOnUse">
<stop stop-color="#3276BC" stop-opacity="0"/>
<stop offset="0.1" stop-color="#3276BC"/>
<stop offset="0.35" stop-color="#3276BC"/>
<stop offset="0.5" stop-color="#3276BC" stop-opacity="0.25"/>
<stop offset="0.65" stop-color="#3276BC"/>
<stop offset="0.9" stop-color="#3276BC"/>
<stop offset="1" stop-color="#3276BC" stop-opacity="0"/>
</linearGradient>
<linearGradient id="paint3_linear_262_6456" x1="23.3637" y1="178.145" x2="1229.25" y2="178.145" gradientUnits="userSpaceOnUse">
<stop stop-color="#3276BC" stop-opacity="0"/>
<stop offset="0.1" stop-color="#3276BC"/>
<stop offset="0.35" stop-color="#3276BC"/>
<stop offset="0.5" stop-color="#3276BC" stop-opacity="0.25"/>
<stop offset="0.65" stop-color="#3276BC"/>
<stop offset="0.9" stop-color="#3276BC"/>
<stop offset="1" stop-color="#3276BC" stop-opacity="0"/>
</linearGradient>
<linearGradient id="paint4_linear_262_6456" x1="31.1429" y1="172.749" x2="1233.35" y2="172.749" gradientUnits="userSpaceOnUse">
<stop stop-color="#3276BC" stop-opacity="0"/>
<stop offset="0.1" stop-color="#3276BC"/>
<stop offset="0.35" stop-color="#3276BC"/>
<stop offset="0.5" stop-color="#3276BC" stop-opacity="0.25"/>
<stop offset="0.65" stop-color="#3276BC"/>
<stop offset="0.9" stop-color="#3276BC"/>
<stop offset="1" stop-color="#3276BC" stop-opacity="0"/>
</linearGradient>
<linearGradient id="paint5_linear_262_6456" x1="38.934" y1="167.212" x2="1237.44" y2="167.212" gradientUnits="userSpaceOnUse">
<stop stop-color="#3276BC" stop-opacity="0"/>
<stop offset="0.1" stop-color="#3276BC"/>
<stop offset="0.35" stop-color="#3276BC"/>
<stop offset="0.5" stop-color="#3276BC" stop-opacity="0.25"/>
<stop offset="0.65" stop-color="#3276BC"/>
<stop offset="0.9" stop-color="#3276BC"/>
<stop offset="1" stop-color="#3276BC" stop-opacity="0"/>
</linearGradient>
<linearGradient id="paint6_linear_262_6456" x1="46.7152" y1="161.486" x2="1241.53" y2="161.486" gradientUnits="userSpaceOnUse">
<stop stop-color="#3276BC" stop-opacity="0"/>
<stop offset="0.1" stop-color="#3276BC"/>
<stop offset="0.35" stop-color="#3276BC"/>
<stop offset="0.5" stop-color="#3276BC" stop-opacity="0.25"/>
<stop offset="0.65" stop-color="#3276BC"/>
<stop offset="0.9" stop-color="#3276BC"/>
<stop offset="1" stop-color="#3276BC" stop-opacity="0"/>
</linearGradient>
<linearGradient id="paint7_linear_262_6456" x1="54.5062" y1="155.46" x2="1245.63" y2="155.46" gradientUnits="userSpaceOnUse">
<stop stop-color="#3276BC" stop-opacity="0"/>
<stop offset="0.1" stop-color="#3276BC"/>
<stop offset="0.35" stop-color="#3276BC"/>
<stop offset="0.5" stop-color="#3276BC" stop-opacity="0.25"/>
<stop offset="0.65" stop-color="#3276BC"/>
<stop offset="0.9" stop-color="#3276BC"/>
<stop offset="1" stop-color="#3276BC" stop-opacity="0"/>
</linearGradient>
<linearGradient id="paint8_linear_262_6456" x1="62.2854" y1="148.964" x2="1249.72" y2="148.964" gradientUnits="userSpaceOnUse">
<stop stop-color="#3276BC" stop-opacity="0"/>
<stop offset="0.1" stop-color="#3276BC"/>
<stop offset="0.35" stop-color="#3276BC"/>
<stop offset="0.5" stop-color="#3276BC" stop-opacity="0.25"/>
<stop offset="0.65" stop-color="#3276BC"/>
<stop offset="0.9" stop-color="#3276BC"/>
<stop offset="1" stop-color="#3276BC" stop-opacity="0"/>
</linearGradient>
<linearGradient id="paint9_linear_262_6456" x1="70.0764" y1="141.739" x2="1253.82" y2="141.739" gradientUnits="userSpaceOnUse">
<stop stop-color="#3276BC" stop-opacity="0"/>
<stop offset="0.1" stop-color="#3276BC"/>
<stop offset="0.35" stop-color="#3276BC"/>
<stop offset="0.5" stop-color="#3276BC" stop-opacity="0.25"/>
<stop offset="0.65" stop-color="#3276BC"/>
<stop offset="0.9" stop-color="#3276BC"/>
<stop offset="1" stop-color="#3276BC" stop-opacity="0"/>
</linearGradient>
<linearGradient id="paint10_linear_262_6456" x1="77.8576" y1="133.234" x2="1257.91" y2="133.234" gradientUnits="userSpaceOnUse">
<stop stop-color="#3276BC" stop-opacity="0"/>
<stop offset="0.1" stop-color="#3276BC"/>
<stop offset="0.35" stop-color="#3276BC"/>
<stop offset="0.5" stop-color="#3276BC" stop-opacity="0.25"/>
<stop offset="0.65" stop-color="#3276BC"/>
<stop offset="0.9" stop-color="#3276BC"/>
<stop offset="1" stop-color="#3276BC" stop-opacity="0"/>
</linearGradient>
<linearGradient id="paint11_linear_262_6456" x1="85.6487" y1="121.122" x2="1262" y2="121.122" gradientUnits="userSpaceOnUse">
<stop stop-color="#3276BC" stop-opacity="0"/>
<stop offset="0.1" stop-color="#3276BC"/>
<stop offset="0.35" stop-color="#3276BC"/>
<stop offset="0.5" stop-color="#3276BC" stop-opacity="0.25"/>
<stop offset="0.65" stop-color="#3276BC"/>
<stop offset="0.9" stop-color="#3276BC"/>
<stop offset="1" stop-color="#3276BC" stop-opacity="0"/>
</linearGradient>
<clipPath id="clip0_262_6456">
<rect width="1262" height="388" fill="white"/>
</clipPath>
</defs>
</svg>
