<svg width="1536" height="467" viewBox="0 0 1536 467" fill="none" xmlns="http://www.w3.org/2000/svg">
<g opacity="0.15" clip-path="url(#clip0_386_3104)">
<path d="M1536.37 111.78C1536.37 111.78 957.309 -55.8299 687.249 221.1C455.029 459.21 313.249 488.87 0.369141 453.89" stroke="url(#paint0_linear_386_3104)" stroke-width="1.5" stroke-miterlimit="10"/>
<path d="M1536.37 101.68C1510.27 104.01 965.929 -31.32 698.839 230C460.449 463.25 308.429 482.16 0.369141 437.1" stroke="url(#paint1_linear_386_3104)" stroke-width="1.5" stroke-miterlimit="10"/>
<path d="M1536.37 91.59C1484.16 96.25 974.189 -7.03003 710.429 238.91C465.639 467.17 303.609 475.44 0.369141 420.3" stroke="url(#paint2_linear_386_3104)" stroke-width="1.5" stroke-miterlimit="10"/>
<path d="M1536.37 81.5001C1458.06 88.4901 982.129 17 722.019 247.83C470.589 470.95 298.789 468.72 0.369141 403.51" stroke="url(#paint3_linear_386_3104)" stroke-width="1.5" stroke-miterlimit="10"/>
<path d="M1536.37 71.3999C1431.95 80.7199 989.759 40.7399 733.609 256.73C475.299 474.54 293.969 462.01 0.369141 386.72" stroke="url(#paint4_linear_386_3104)" stroke-width="1.5" stroke-miterlimit="10"/>
<path d="M1536.37 61.3101C1405.85 72.9601 997.099 64.2201 745.199 265.64C479.749 477.89 289.139 455.29 0.369141 369.93" stroke="url(#paint5_linear_386_3104)" stroke-width="1.5" stroke-miterlimit="10"/>
<path d="M1536.37 51.21C1379.75 65.19 1004.18 87.38 756.799 274.54C483.949 480.96 284.319 448.58 0.369141 353.13" stroke="url(#paint6_linear_386_3104)" stroke-width="1.5" stroke-miterlimit="10"/>
<path d="M1536.37 41.1201C1353.64 57.4201 1011.02 110.25 768.389 283.45C487.889 483.68 279.499 441.86 0.369141 336.34" stroke="url(#paint7_linear_386_3104)" stroke-width="1.5" stroke-miterlimit="10"/>
<path d="M1536.37 31.03C1327.54 49.66 1017.66 132.79 779.979 292.36C491.569 485.99 274.679 435.14 0.369141 319.55" stroke="url(#paint8_linear_386_3104)" stroke-width="1.5" stroke-miterlimit="10"/>
<path d="M1536.37 20.9299C1301.43 41.8899 1024.13 154.98 791.569 301.27C494.989 487.82 269.859 428.43 0.369141 302.76" stroke="url(#paint9_linear_386_3104)" stroke-width="1.5" stroke-miterlimit="10"/>
<path d="M1536.37 10.8401C1275.33 34.1301 1030.48 176.84 803.159 310.18C498.149 489.08 265.039 421.71 0.369141 285.96" stroke="url(#paint10_linear_386_3104)" stroke-width="1.5" stroke-miterlimit="10"/>
<path d="M1536.37 0.75C1249.23 26.37 1036.75 198.34 814.749 319.09C501.079 489.69 260.209 414.99 0.369141 269.17" stroke="url(#paint11_linear_386_3104)" stroke-width="1.5" stroke-miterlimit="10"/>
</g>
<defs>
<linearGradient id="paint0_linear_386_3104" x1="1536.74" y1="167.278" x2="0.738278" y2="167.278" gradientUnits="userSpaceOnUse">
<stop stop-color="#3276BC" stop-opacity="0"/>
<stop offset="0.2" stop-color="#3276BC"/>
<stop offset="0.35" stop-color="#3276BC"/>
<stop offset="0.5" stop-color="#3276BC"/>
<stop offset="0.65" stop-color="#3276BC"/>
<stop offset="0.8" stop-color="#3276BC"/>
<stop offset="1" stop-color="#3276BC" stop-opacity="0"/>
</linearGradient>
<linearGradient id="paint1_linear_386_3104" x1="1536.74" y1="170.123" x2="0.738278" y2="170.123" gradientUnits="userSpaceOnUse">
<stop stop-color="#3276BC" stop-opacity="0"/>
<stop offset="0.2" stop-color="#3276BC"/>
<stop offset="0.35" stop-color="#3276BC"/>
<stop offset="0.5" stop-color="#3276BC"/>
<stop offset="0.65" stop-color="#3276BC"/>
<stop offset="0.8" stop-color="#3276BC"/>
<stop offset="1" stop-color="#3276BC" stop-opacity="0"/>
</linearGradient>
<linearGradient id="paint2_linear_386_3104" x1="1536.74" y1="171.917" x2="0.738278" y2="171.917" gradientUnits="userSpaceOnUse">
<stop stop-color="#3276BC" stop-opacity="0"/>
<stop offset="0.2" stop-color="#3276BC"/>
<stop offset="0.35" stop-color="#3276BC"/>
<stop offset="0.5" stop-color="#3276BC"/>
<stop offset="0.65" stop-color="#3276BC"/>
<stop offset="0.8" stop-color="#3276BC"/>
<stop offset="1" stop-color="#3276BC" stop-opacity="0"/>
</linearGradient>
<linearGradient id="paint3_linear_386_3104" x1="1536.74" y1="171.876" x2="0.738278" y2="171.876" gradientUnits="userSpaceOnUse">
<stop stop-color="#3276BC" stop-opacity="0"/>
<stop offset="0.2" stop-color="#3276BC"/>
<stop offset="0.35" stop-color="#3276BC"/>
<stop offset="0.5" stop-color="#3276BC"/>
<stop offset="0.65" stop-color="#3276BC"/>
<stop offset="0.8" stop-color="#3276BC"/>
<stop offset="1" stop-color="#3276BC" stop-opacity="0"/>
</linearGradient>
<linearGradient id="paint4_linear_386_3104" x1="1536.74" y1="166.779" x2="0.738278" y2="166.779" gradientUnits="userSpaceOnUse">
<stop stop-color="#3276BC" stop-opacity="0"/>
<stop offset="0.2" stop-color="#3276BC"/>
<stop offset="0.35" stop-color="#3276BC"/>
<stop offset="0.5" stop-color="#3276BC"/>
<stop offset="0.65" stop-color="#3276BC"/>
<stop offset="0.8" stop-color="#3276BC"/>
<stop offset="1" stop-color="#3276BC" stop-opacity="0"/>
</linearGradient>
<linearGradient id="paint5_linear_386_3104" x1="1536.74" y1="158.102" x2="0.738278" y2="158.102" gradientUnits="userSpaceOnUse">
<stop stop-color="#3276BC" stop-opacity="0"/>
<stop offset="0.2" stop-color="#3276BC"/>
<stop offset="0.35" stop-color="#3276BC"/>
<stop offset="0.5" stop-color="#3276BC"/>
<stop offset="0.65" stop-color="#3276BC"/>
<stop offset="0.8" stop-color="#3276BC"/>
<stop offset="1" stop-color="#3276BC" stop-opacity="0"/>
</linearGradient>
<linearGradient id="paint6_linear_386_3104" x1="1536.74" y1="149.638" x2="0.738278" y2="149.638" gradientUnits="userSpaceOnUse">
<stop stop-color="#3276BC" stop-opacity="0"/>
<stop offset="0.2" stop-color="#3276BC"/>
<stop offset="0.35" stop-color="#3276BC"/>
<stop offset="0.5" stop-color="#3276BC"/>
<stop offset="0.65" stop-color="#3276BC"/>
<stop offset="0.8" stop-color="#3276BC"/>
<stop offset="1" stop-color="#3276BC" stop-opacity="0"/>
</linearGradient>
<linearGradient id="paint7_linear_386_3104" x1="1536.74" y1="141.371" x2="0.738278" y2="141.371" gradientUnits="userSpaceOnUse">
<stop stop-color="#3276BC" stop-opacity="0"/>
<stop offset="0.2" stop-color="#3276BC"/>
<stop offset="0.35" stop-color="#3276BC"/>
<stop offset="0.5" stop-color="#3276BC"/>
<stop offset="0.65" stop-color="#3276BC"/>
<stop offset="0.8" stop-color="#3276BC"/>
<stop offset="1" stop-color="#3276BC" stop-opacity="0"/>
</linearGradient>
<linearGradient id="paint8_linear_386_3104" x1="1536.74" y1="133.263" x2="0.738278" y2="133.263" gradientUnits="userSpaceOnUse">
<stop stop-color="#3276BC" stop-opacity="0"/>
<stop offset="0.2" stop-color="#3276BC"/>
<stop offset="0.35" stop-color="#3276BC"/>
<stop offset="0.5" stop-color="#3276BC"/>
<stop offset="0.65" stop-color="#3276BC"/>
<stop offset="0.8" stop-color="#3276BC"/>
<stop offset="1" stop-color="#3276BC" stop-opacity="0"/>
</linearGradient>
<linearGradient id="paint9_linear_386_3104" x1="1536.74" y1="125.282" x2="0.738278" y2="125.282" gradientUnits="userSpaceOnUse">
<stop stop-color="#3276BC" stop-opacity="0"/>
<stop offset="0.2" stop-color="#3276BC"/>
<stop offset="0.35" stop-color="#3276BC"/>
<stop offset="0.5" stop-color="#3276BC"/>
<stop offset="0.65" stop-color="#3276BC"/>
<stop offset="0.8" stop-color="#3276BC"/>
<stop offset="1" stop-color="#3276BC" stop-opacity="0"/>
</linearGradient>
<linearGradient id="paint10_linear_386_3104" x1="1536.74" y1="117.414" x2="0.738278" y2="117.414" gradientUnits="userSpaceOnUse">
<stop stop-color="#3276BC" stop-opacity="0"/>
<stop offset="0.2" stop-color="#3276BC"/>
<stop offset="0.35" stop-color="#3276BC"/>
<stop offset="0.5" stop-color="#3276BC"/>
<stop offset="0.65" stop-color="#3276BC"/>
<stop offset="0.8" stop-color="#3276BC"/>
<stop offset="1" stop-color="#3276BC" stop-opacity="0"/>
</linearGradient>
<linearGradient id="paint11_linear_386_3104" x1="1536.74" y1="109.632" x2="0.738278" y2="109.632" gradientUnits="userSpaceOnUse">
<stop stop-color="#3276BC" stop-opacity="0"/>
<stop offset="0.2" stop-color="#3276BC"/>
<stop offset="0.35" stop-color="#3276BC"/>
<stop offset="0.5" stop-color="#3276BC"/>
<stop offset="0.65" stop-color="#3276BC"/>
<stop offset="0.8" stop-color="#3276BC"/>
<stop offset="1" stop-color="#3276BC" stop-opacity="0"/>
</linearGradient>
<clipPath id="clip0_386_3104">
<rect width="1536.58" height="466.81" fill="white"/>
</clipPath>
</defs>
</svg>
